<?xml version="1.0" encoding="UTF-8"?>
<svg xmlns="http://www.w3.org/2000/svg" xmlns:xlink="http://www.w3.org/1999/xlink" width="50px" height="50px" viewBox="0 0 50 50" version="1.1">
<g id="surface1">
<path style=" stroke:none;fill-rule:nonzero;fill:rgb(46.666667%,98.823529%,49.019608%);fill-opacity:1;" d="M 25 50 C 11.195312 50 0 38.808594 0 25 C 0 11.191406 11.195312 0 25 0 C 38.808594 0 50 11.191406 50 25 C 50 38.808594 38.808594 50 25 50 Z M 25 6.25 C 14.644531 6.25 6.25 14.644531 6.25 25 C 6.25 35.355469 14.644531 43.75 25 43.75 C 35.355469 43.75 43.75 35.355469 43.75 25 C 43.75 14.644531 35.355469 6.25 25 6.25 Z M 28.125 37.5 L 21.875 37.5 L 21.875 28.125 L 12.5 28.125 L 12.5 21.875 L 21.875 21.875 L 21.875 12.5 L 28.125 12.5 L 28.125 21.875 L 37.5 21.875 L 37.5 28.125 L 28.125 28.125 Z M 28.125 37.5 "/>
</g>
</svg>
