<?xml version="1.0" encoding="UTF-8"?>
<svg xmlns="http://www.w3.org/2000/svg" xmlns:xlink="http://www.w3.org/1999/xlink" width="23px" height="23px" viewBox="0 0 23 23" version="1.1">
<g id="surface1">
<path style=" stroke:none;fill-rule:nonzero;fill:rgb(24.313725%,24.313725%,24.313725%);fill-opacity:1;" d="M 22.710938 22.203125 L 13.738281 13.230469 C 15.074219 11.777344 15.8125 9.878906 15.8125 7.90625 C 15.8125 3.539062 12.273438 0 7.90625 0 C 3.539062 0 0 3.539062 0 7.90625 C 0 12.273438 3.539062 15.8125 7.90625 15.8125 C 9.960938 15.8125 11.824219 15.023438 13.230469 13.738281 L 22.203125 22.710938 C 22.296875 22.804688 22.449219 22.804688 22.539062 22.710938 L 22.710938 22.539062 C 22.804688 22.445312 22.804688 22.296875 22.710938 22.203125 Z M 0.71875 7.90625 C 0.71875 3.9375 3.9375 0.71875 7.90625 0.71875 C 11.875 0.71875 15.09375 3.9375 15.09375 7.90625 C 15.09375 11.875 11.875 15.09375 7.90625 15.09375 C 3.9375 15.09375 0.71875 11.875 0.71875 7.90625 Z M 0.71875 7.90625 "/>
</g>
</svg>
