<?xml version="1.0" encoding="UTF-8"?>
<svg xmlns="http://www.w3.org/2000/svg" xmlns:xlink="http://www.w3.org/1999/xlink" width="30px" height="30px" viewBox="0 0 30 30" version="1.1">
<g id="surface1">
<path style=" stroke:none;fill-rule:nonzero;fill:rgb(0%,0%,0%);fill-opacity:1;" d="M 27.144531 15 C 27.144531 15.679688 26.777344 16.304688 26.183594 16.636719 L 6.390625 27.722656 C 5.710938 28.105469 4.859375 28.027344 4.265625 27.515625 C 3.664062 27.015625 3.441406 26.191406 3.707031 25.453125 L 7.105469 15.9375 L 15.9375 15.9375 C 16.457031 15.9375 16.875 15.519531 16.875 15 C 16.875 14.480469 16.457031 14.0625 15.9375 14.0625 L 7.105469 14.0625 L 3.707031 4.546875 C 3.445312 3.808594 3.667969 2.988281 4.265625 2.484375 C 4.859375 1.976562 5.707031 1.898438 6.390625 2.277344 L 26.183594 13.363281 C 26.777344 13.695312 27.144531 14.320312 27.144531 15 Z M 27.144531 15 "/>
</g>
</svg>
